<?xml version="1.0" encoding="UTF-8" standalone="no"?>
<!-- Created with Inkscape (http://www.inkscape.org/) -->

<svg
   xmlns:dc="http://purl.org/dc/elements/1.1/"
   xmlns:cc="http://creativecommons.org/ns#"
   xmlns:rdf="http://www.w3.org/1999/02/22-rdf-syntax-ns#"
   xmlns:svg="http://www.w3.org/2000/svg"
   xmlns="http://www.w3.org/2000/svg"
   xmlns:sodipodi="http://sodipodi.sourceforge.net/DTD/sodipodi-0.dtd"
   xmlns:inkscape="http://www.inkscape.org/namespaces/inkscape"
   id="svg2"
   version="1.1"
   inkscape:version="0.48.5 r10040"
   width="328.3325"
   height="150"
   xml:space="preserve"
   sodipodi:docname="logga InterAct NY VERSION.ai"><metadata
     id="metadata8"><rdf:RDF><cc:Work
         rdf:about=""><dc:format>image/svg+xml</dc:format><dc:type
           rdf:resource="http://purl.org/dc/dcmitype/StillImage" /><dc:title></dc:title></cc:Work></rdf:RDF></metadata><defs
     id="defs6"><clipPath
       clipPathUnits="userSpaceOnUse"
       id="clipPath30"><path
         d="m 0,120 262.667,0 0,-120 L 0,0 0,120 z"
         id="path32" /></clipPath></defs><sodipodi:namedview
     pagecolor="#ffffff"
     bordercolor="#666666"
     borderopacity="1"
     objecttolerance="10"
     gridtolerance="10"
     guidetolerance="10"
     inkscape:pageopacity="0"
     inkscape:pageshadow="2"
     inkscape:window-width="1676"
     inkscape:window-height="1006"
     id="namedview4"
     showgrid="false"
     showguides="true"
     inkscape:guide-bbox="true"
     inkscape:zoom="8"
     inkscape:cx="103.51552"
     inkscape:cy="103.53202"
     inkscape:window-x="4"
     inkscape:window-y="0"
     inkscape:window-maximized="1"
     inkscape:current-layer="g10"><sodipodi:guide
       orientation="1,0"
       position="244.65895,1.0606602"
       id="guide3160" /></sodipodi:namedview><g
     id="g10"
     inkscape:groupmode="layer"
     inkscape:label="logga InterAct NY VERSION"
     transform="matrix(1.25,0,0,-1.25,0,150)"><path
       d="m 57.762,8.883 23.187,0 0,111.118 -23.187,0 0,-111.118 z"
       style="fill:#2f5f75;fill-opacity:1;fill-rule:nonzero;stroke:none"
       id="path12" /><path
       d="m 0,87.656 262.667,0 0,8.282 -262.667,0 0,-8.282 z"
       style="fill:#3b7c95;fill-opacity:1;fill-rule:nonzero;stroke:none"
       id="path14" /><path
       d="m 195.667,73.889 -191.731,0 0,8.281 191.731,0 0,-8.281 z"
       style="fill:#f18819;fill-opacity:1;fill-rule:nonzero;stroke:none"
       id="path16" /><path
       d="m 25.72,42.102935 28.021,0 0,-21.209935 -28.021,0 0,21.209935 z"
       style="fill:#3b9a3f;fill-opacity:1;fill-rule:nonzero;stroke:none"
       id="path18"
       inkscape:connector-curvature="0" /><path
       d="m 80.949,82.02 -23.187,0 0,16.23 23.187,0 0,-16.23 z"
       style="fill:#2f5f75;fill-opacity:1;fill-rule:nonzero;stroke:none"
       id="path24" /><path
       d="m 25.666043,120.08955 28.021,0 0,-51.357903 -28.021,0 0,51.357903 z"
       style="fill:#3b9a3f;fill-opacity:1;fill-rule:nonzero;stroke:none"
       id="path18-3"
       inkscape:connector-curvature="0" /><path
       style="fill:#ffffff;fill-opacity:1;fill-rule:nonzero;stroke:none"
       d="m 106.6658,68.782843 0,-26.736396 156.02402,0 0,26.736396 -156.02402,0 z"
       id="path16-4"
       inkscape:connector-curvature="0" /><g
       id="g3142"
       transform="translate(0,-0.28284271)"><g
         transform="translate(114.7336,43.412452)"
         id="g34"><path
           id="path36"
           style="fill:#284958;fill-opacity:1;fill-rule:nonzero;stroke:none"
           d="m 0,0 c 0.288,4.143 0.521,8.391 0.702,12.746 0.179,4.354 0.269,7.68 0.269,9.981 l -0.018,1.933 3.02,-0.036 c 0.168,0 1.09,0.012 2.766,0.036 C 6.247,18.324 5.936,10.105 5.804,0 L 3.146,0.035 C 2.7,0.035 1.651,0.023 0,0"
           inkscape:connector-curvature="0" /></g><g
         transform="translate(125.12171,43.412452)"
         id="g38"><path
           id="path40"
           style="fill:#284958;fill-opacity:1;fill-rule:nonzero;stroke:none"
           d="m 0,0 c 0.275,2.733 0.505,5.805 0.691,9.213 0.186,3.408 0.291,6.462 0.315,9.16 1.109,-0.024 1.995,-0.036 2.659,-0.036 0.783,0 1.615,0.012 2.496,0.036 L 5.96,15.302 c 0.373,0.53 0.701,0.951 0.984,1.264 0.284,0.313 0.645,0.621 1.084,0.922 0.44,0.301 0.91,0.541 1.41,0.723 0.5,0.18 1.06,0.324 1.68,0.434 0.621,0.107 1.268,0.162 1.943,0.162 1.072,0 2.099,-0.135 3.081,-0.407 0.981,-0.271 1.774,-0.702 2.376,-1.292 0.602,-0.59 1,-1.235 1.193,-1.932 C 19.902,14.477 20,13.736 20,12.953 20,12.628 19.982,12.109 19.945,11.399 L 19.572,3.504 C 19.525,2.408 19.495,1.24 19.483,0 18.53,0.023 17.717,0.035 17.041,0.035 16.123,0.035 15.201,0.023 14.273,0 c 0.096,1.047 0.217,2.875 0.362,5.482 0.145,2.608 0.219,4.333 0.219,5.176 0,0.951 -0.152,1.717 -0.453,2.295 -0.3,0.578 -0.766,1.018 -1.399,1.318 -0.631,0.301 -1.314,0.453 -2.048,0.453 -0.722,0 -1.396,-0.139 -2.022,-0.415 C 8.306,14.031 7.765,13.627 7.307,13.098 6.826,12.556 6.453,11.887 6.188,11.092 5.911,10.249 5.707,8.857 5.574,6.919 5.453,5.196 5.356,2.891 5.284,0 4.355,0.023 3.516,0.035 2.769,0.035 2.008,0.035 1.086,0.023 0,0"
           inkscape:connector-curvature="0" /></g><g
         transform="translate(160.20671,47.187852)"
         id="g42"><path
           id="path44"
           style="fill:#284958;fill-opacity:1;fill-rule:nonzero;stroke:none"
           d="m 0,0 c -0.145,-0.662 -0.374,-1.891 -0.687,-3.686 -1.011,-0.228 -1.806,-0.373 -2.384,-0.433 -0.578,-0.061 -1.12,-0.09 -1.626,-0.09 -0.892,0 -1.69,0.084 -2.394,0.252 -0.705,0.17 -1.286,0.467 -1.744,0.894 -0.457,0.428 -0.768,0.928 -0.93,1.501 -0.163,0.572 -0.244,1.164 -0.244,1.779 0,0.156 0.006,0.367 0.018,0.633 0.011,0.263 0.06,1.119 0.144,2.564 l 0.414,7.516 -2.599,0 c 0.06,0.722 0.114,1.884 0.162,3.487 l 2.722,0 c 0.071,0.698 0.143,1.885 0.215,3.56 l 2.135,0.415 c 0.447,0.084 1.31,0.282 2.588,0.596 -0.086,-1.627 -0.135,-3.15 -0.148,-4.571 l 4.593,0 C 0.15,12.791 0.108,11.629 0.108,10.93 l -4.607,0 c -0.254,-4.903 -0.38,-7.739 -0.38,-8.509 0,-0.747 0.081,-1.325 0.244,-1.735 0.163,-0.409 0.425,-0.704 0.786,-0.885 0.362,-0.18 0.746,-0.271 1.157,-0.271 0.3,0 0.617,0.025 0.949,0.072 C -1.413,-0.35 -0.831,-0.217 0,0"
           inkscape:connector-curvature="0" /></g><g
         transform="translate(167.41471,54.811852)"
         id="g46"><path
           id="path48"
           style="fill:#284958;fill-opacity:1;fill-rule:nonzero;stroke:none"
           d="M 0,0 8.455,-0.018 C 8.455,0.558 8.438,0.983 8.401,1.26 8.365,1.535 8.283,1.851 8.158,2.204 8.031,2.558 7.859,2.87 7.643,3.14 7.426,3.409 7.173,3.634 6.884,3.814 6.595,3.994 6.26,4.132 5.881,4.228 5.502,4.324 5.096,4.372 4.662,4.372 4.156,4.372 3.665,4.294 3.189,4.138 2.713,3.982 2.277,3.754 1.879,3.454 1.482,3.155 1.16,2.819 0.912,2.446 0.666,2.075 0.482,1.718 0.361,1.376 0.241,1.034 0.121,0.575 0,0 m 11.672,-7.299 c -0.157,-0.711 -0.38,-1.987 -0.669,-3.83 -1.301,-0.276 -2.398,-0.464 -3.288,-0.559 -0.892,-0.097 -1.789,-0.145 -2.692,-0.145 -1.578,0 -2.99,0.156 -4.236,0.469 -1.248,0.312 -2.34,0.887 -3.279,1.723 -0.94,0.837 -1.633,1.863 -2.078,3.078 -0.446,1.214 -0.668,2.491 -0.668,3.827 0,1.479 0.258,2.915 0.776,4.303 0.518,1.391 1.243,2.528 2.177,3.413 0.933,0.884 1.996,1.509 3.189,1.877 1.192,0.367 2.439,0.55 3.74,0.55 1.228,0 2.396,-0.153 3.504,-0.46 1.108,-0.306 2.04,-0.808 2.791,-1.505 0.753,-0.697 1.332,-1.537 1.735,-2.515 0.404,-0.981 0.605,-2.072 0.605,-3.274 0,-0.564 -0.06,-1.148 -0.18,-1.749 L -0.145,-2.114 C -0.168,-2.559 -0.18,-2.915 -0.18,-3.18 c 0,-0.807 0.138,-1.547 0.415,-2.221 0.277,-0.676 0.681,-1.247 1.21,-1.717 0.531,-0.47 1.162,-0.816 1.898,-1.039 0.734,-0.223 1.457,-0.334 2.168,-0.334 0.831,0 1.731,0.09 2.7,0.271 0.971,0.18 2.123,0.488 3.461,0.921"
           inkscape:connector-curvature="0" /></g><g
         transform="translate(183.404,43.412452)"
         id="g50"><path
           id="path52"
           style="fill:#284958;fill-opacity:1;fill-rule:nonzero;stroke:none"
           d="m 0,0 0.522,8.581 0.145,4.986 c 0.024,1.024 0.037,2.054 0.037,3.089 0,0.182 -0.013,0.753 -0.037,1.717 1.121,-0.024 1.945,-0.036 2.476,-0.036 0.614,0 1.427,0.012 2.44,0.036 L 5.492,15.826 c 0.458,0.651 0.849,1.135 1.175,1.453 0.324,0.321 0.689,0.594 1.092,0.823 0.404,0.228 0.852,0.404 1.346,0.524 0.494,0.12 0.999,0.181 1.518,0.181 0.481,0 0.976,-0.061 1.481,-0.181 0,-1.12 0.055,-2.542 0.163,-4.264 -0.711,0.193 -1.356,0.289 -1.934,0.289 -0.697,0 -1.315,-0.105 -1.852,-0.315 C 7.945,14.125 7.464,13.805 7.036,13.377 6.608,12.95 6.256,12.423 5.979,11.797 5.75,11.291 5.581,10.635 5.474,9.828 5.38,9.201 5.3,8.129 5.235,6.611 5.171,5.094 5.139,3.601 5.139,2.131 5.139,1.564 5.157,0.855 5.192,0 4.276,0.023 3.438,0.035 2.678,0.035 1.93,0.035 1.037,0.023 0,0"
           inkscape:connector-curvature="0" /></g><g
         transform="translate(206.63351,55.931952)"
         id="g54"><path
           id="path56"
           style="fill:#284958;fill-opacity:1;fill-rule:nonzero;stroke:none"
           d="M 0,0 6.923,0 4.08,8.362 2.619,5.321 0,0 z m -11.793,-12.52 c 1.253,2.215 2.723,4.956 4.41,8.22 l 4.754,9.124 c 1.483,2.819 2.712,5.257 3.688,7.317 1.566,-0.025 2.673,-0.036 3.324,-0.036 1.144,0 2.263,0.011 3.359,0.036 l 2.582,-7.389 5.615,-15.285 0.776,-1.987 -2.705,0.036 c -0.627,0 -1.679,-0.012 -3.158,-0.036 -0.289,1.072 -0.745,2.517 -1.368,4.336 -0.621,1.819 -1.148,3.293 -1.584,4.426 l -9.505,0 c -1.409,-2.867 -2.782,-5.787 -4.118,-8.762 l -2.945,0.036 c -0.554,0 -1.596,-0.012 -3.125,-0.036"
           inkscape:connector-curvature="0" /></g><g
         transform="translate(240.0417,47.585352)"
         id="g58"><path
           id="path60"
           style="fill:#284958;fill-opacity:1;fill-rule:nonzero;stroke:none"
           d="m 0,0 c -0.061,-0.494 -0.15,-1.054 -0.27,-1.681 -0.121,-0.626 -0.248,-1.402 -0.38,-2.33 -1.723,-0.397 -3.42,-0.595 -5.094,-0.595 -0.977,0 -1.916,0.089 -2.819,0.27 -0.904,0.181 -1.744,0.503 -2.52,0.966 -0.777,0.465 -1.461,1.076 -2.051,1.834 -0.591,0.76 -1.032,1.678 -1.328,2.756 -0.295,1.078 -0.442,2.188 -0.442,3.333 0,1.517 0.244,2.974 0.731,4.372 0.488,1.396 1.202,2.539 2.142,3.424 0.939,0.884 1.984,1.487 3.134,1.806 1.15,0.319 2.43,0.479 3.838,0.479 0.784,0 1.59,-0.045 2.422,-0.135 0.83,-0.092 1.813,-0.275 2.945,-0.552 l 0.27,-3.956 c -1.791,0.614 -3.353,0.921 -4.688,0.921 -0.818,0 -1.591,-0.139 -2.318,-0.415 C -7.155,10.22 -7.781,9.782 -8.304,9.187 -8.826,8.591 -9.199,7.901 -9.422,7.118 -9.645,6.335 -9.756,5.534 -9.756,4.716 c 0,-1.145 0.178,-2.135 0.532,-2.973 0.355,-0.837 0.965,-1.484 1.831,-1.941 0.866,-0.459 1.852,-0.688 2.957,-0.688 0.541,0 1.2,0.071 1.975,0.209 C -1.686,-0.539 -0.865,-0.313 0,0"
           inkscape:connector-curvature="0" /></g><g
         transform="translate(255.0006,47.187852)"
         id="g62"><path
           id="path64"
           style="fill:#284958;fill-opacity:1;fill-rule:nonzero;stroke:none"
           d="m 0,0 c -0.144,-0.662 -0.373,-1.891 -0.685,-3.686 -1.012,-0.228 -1.807,-0.373 -2.385,-0.433 -0.578,-0.061 -1.121,-0.09 -1.627,-0.09 -0.891,0 -1.69,0.084 -2.393,0.252 -0.705,0.17 -1.287,0.467 -1.744,0.894 -0.458,0.428 -0.767,0.928 -0.93,1.501 -0.164,0.572 -0.244,1.164 -0.244,1.779 0,0.156 0.006,0.367 0.018,0.633 0.012,0.263 0.06,1.119 0.144,2.564 l 0.414,7.516 -2.599,0 c 0.059,0.722 0.113,1.884 0.162,3.487 l 2.721,0 c 0.072,0.698 0.144,1.885 0.215,3.56 l 2.136,0.415 c 0.447,0.084 1.309,0.282 2.588,0.596 -0.086,-1.627 -0.136,-3.15 -0.148,-4.571 l 4.592,0 C 0.15,12.791 0.109,11.629 0.109,10.93 l -4.607,0 C -4.752,6.027 -4.879,3.191 -4.879,2.421 c 0,-0.747 0.082,-1.325 0.244,-1.735 0.163,-0.409 0.425,-0.704 0.786,-0.885 0.362,-0.18 0.748,-0.271 1.158,-0.271 0.3,0 0.617,0.025 0.948,0.072 C -1.412,-0.35 -0.831,-0.217 0,0"
           inkscape:connector-curvature="0" /></g></g></g></svg>